<svg width="92" height="92" viewBox="0 0 92 92" fill="none" xmlns="http://www.w3.org/2000/svg">
<path d="M64.242 27.759V25.428C59.112 29.24 58.839 32.902 57.477 34.855C55.064 38.315 52.912 37.865 52.508 36.611C51.883 34.668 52.725 29.56 50.929 29.563C43.838 29.575 38.187 29.883 33.647 38.602C29.107 47.321 25.892 43.763 25.892 43.763C25.892 43.763 31.72 29.508 36.093 24.692C39.388 21.063 47.379 19.862 53.981 18.335C57.886 17.432 61.282 16.039 64.242 14.48V0H27.759V27.758H0V64.241H27.758V68.735C33.281 64.818 33.536 61.017 34.933 59.014C37.346 55.554 39.498 56.004 39.902 57.258C40.527 59.2 39.685 64.309 41.481 64.306C48.572 64.294 54.223 63.986 58.763 55.267C63.303 46.548 66.518 50.106 66.518 50.106C66.518 50.106 60.69 64.361 56.317 69.177C53.022 72.806 45.031 74.007 38.429 75.534C34.339 76.48 30.815 77.964 27.758 79.613V92.001H64.241V64.243H92V27.76H64.242V27.759ZM46 55.203C40.35 53.313 36.728 48.452 37.468 44.36C37.959 41.643 40.522 40.104 42.82 40.899C45.108 41.69 46 43.229 46 43.229C46 43.229 46.892 41.691 49.18 40.899C51.478 40.104 54.041 41.643 54.532 44.36C55.272 48.452 51.65 53.313 46 55.203Z" fill="url(#paint0_linear_1_24)"/>
<path d="M27.613 27.759H27.758V0.00100708H64.241V14.481C61.281 16.041 57.885 17.433 53.98 18.336C47.378 19.863 39.387 21.064 36.092 24.693C34.482 26.465 32.678 29.518 31.037 32.667C29.834 31.079 28.692 29.442 27.613 27.759ZM38.972 41.686C40.031 40.776 41.47 40.432 42.821 40.899C45.109 41.69 46.001 43.229 46.001 43.229C46.001 43.229 46.893 41.691 49.181 40.899C51.479 40.104 54.042 41.643 54.533 44.36C54.995 46.917 53.754 49.775 51.379 52.02C52.736 52.98 54.108 53.919 55.506 54.819C56.357 55.367 57.223 55.916 58.1 56.464C58.324 56.082 58.546 55.688 58.765 55.268C63.305 46.549 66.52 50.107 66.52 50.107C66.52 50.107 64.758 54.414 62.446 59.092C65.604 60.936 68.892 62.697 72.273 64.243H92V27.76H64.242V25.429C59.112 29.241 58.839 32.903 57.477 34.856C55.064 38.316 52.912 37.866 52.508 36.612C51.883 34.669 52.725 29.561 50.929 29.564C44.303 29.576 38.935 29.849 34.556 36.997C35.966 38.614 37.442 40.176 38.972 41.686Z" fill="url(#paint1_linear_1_24)"/>
<path opacity="0.25" d="M57.879 34.174C58.949 32.119 59.656 28.836 64.241 25.429V27.76H92V54.597C82.825 51.574 74.126 47.153 66.215 41.223C63.325 39.056 60.553 36.675 57.879 34.174ZM44.84 20.441C47.802 19.641 51.028 19.02 53.981 18.337C57.886 17.434 61.282 16.041 64.242 14.482V0.00201416H33.193C34.98 7.74601 39.689 14.419 44.84 20.441Z" fill="url(#paint2_linear_1_24)"/>
<defs>
<linearGradient id="paint0_linear_1_24" x1="13.8792" y1="78.1217" x2="78.1208" y2="13.8801" gradientUnits="userSpaceOnUse">
<stop stop-color="#0076C1"/>
<stop offset="0.0737" stop-color="#0B82C6"/>
<stop offset="0.2766" stop-color="#269ED3"/>
<stop offset="0.4546" stop-color="#36AFDA"/>
<stop offset="0.587" stop-color="#3CB5DD"/>
</linearGradient>
<linearGradient id="paint1_linear_1_24" x1="12.8186" y1="79.1824" x2="78.1208" y2="13.8801" gradientUnits="userSpaceOnUse">
<stop stop-color="#00A482"/>
<stop offset="1" stop-color="#79DD83"/>
</linearGradient>
<linearGradient id="paint2_linear_1_24" x1="11.7656" y1="78.1296" x2="77.0679" y2="12.8272" gradientUnits="userSpaceOnUse">
<stop stop-color="#00A482"/>
<stop offset="1" stop-color="#79DD83"/>
</linearGradient>
</defs>
</svg>
